<?xml version="1.0" encoding="utf-8"?>
<!-- Generator: Adobe Illustrator 27.5.0, SVG Export Plug-In . SVG Version: 6.00 Build 0)  -->
<svg version="1.1" id="Layer_1" xmlns="http://www.w3.org/2000/svg" xmlns:xlink="http://www.w3.org/1999/xlink" x="0px" y="0px"
	 viewBox="0 0 120 120" style="enable-background:new 0 0 120 120;" xml:space="preserve">
<rect style="fill:#082E41;" width="120" height="120"/>
<g>
	<g>
		<polygon style="fill:#24C2CB;" points="55.435,90.376 55.304,90.508 21.382,56.585 21.513,56.454 		"/>
	</g>
	
		<rect x="47.857" y="73.407" transform="matrix(0.7071 -0.7071 0.7071 0.7071 -50.5902 60.9916)" style="fill:#EAE7D6;" width="0.943" height="36.312"/>
	
		<rect x="61.161" y="49.418" transform="matrix(0.708 -0.7062 0.7062 0.708 -36.154 65.7617)" style="fill:#FFCC5C;" width="0.567" height="54.364"/>
	<polygon style="fill:#EAE7D6;" points="9.74,60.08 22.101,60.633 15.644,54.177 	"/>
	<polygon style="fill:#FF6F69;" points="59.259,31.14 31.016,31.14 45.138,45.261 	"/>
	
		<rect x="70.445" y="1.144" transform="matrix(0.7072 -0.7071 0.7071 0.7072 -1.1178 61.0286)" style="fill:#FFCC5C;" width="5.343" height="61.44"/>
	
		<rect x="50.598" y="31.969" transform="matrix(0.7068 -0.7074 0.7074 0.7068 -27.1215 53.8368)" style="fill:#DA2536;" width="1.572" height="55.334"/>
	<polygon style="fill:#FF6F69;" points="83.416,79.218 66.47,79.218 74.943,87.691 	"/>
	
		<rect x="68.559" y="0.88" transform="matrix(0.7071 -0.7071 0.7071 0.7071 -15.6328 64.5996)" style="fill:#EAE7D6;" width="3.206" height="100.581"/>
	
		<rect x="30.695" y="39.268" transform="matrix(0.7071 -0.7071 0.7071 0.7071 -30.376 38.4017)" style="fill:#24C2CB;" width="0.943" height="33.201"/>
	<polygon style="fill:#DA2536;" points="47.453,103.545 72.265,95.68 63.792,87.206 	"/>
	
		<rect x="40.027" y="35.221" transform="matrix(0.7074 -0.7068 0.7068 0.7074 -34.4159 48.142)" style="fill:#FF6F69;" width="1.819" height="60.833"/>
	<polygon style="fill:#AAD862;" points="36.699,82.529 63.85,85.739 48.669,70.559 	"/>
	
		<rect x="66.274" y="49.582" transform="matrix(0.7072 -0.707 0.707 0.7072 -38.3348 72.6421)" style="fill:#EAE7D6;" width="4.529" height="66.047"/>
	
		<rect x="42.867" y="17.124" transform="matrix(0.7071 -0.7071 0.7071 0.7071 -20.3884 44.5094)" style="fill:#FF6F69;" width="1.333" height="59.483"/>
	<polygon style="fill:#AAD862;" points="25.633,27.804 22.217,41.775 16.94,36.498 	"/>
	
		<rect x="53.063" y="27.822" transform="matrix(0.7071 -0.7071 0.7071 0.7071 -20.1867 54.312)" style="fill:#24C2CB;" width="4.809" height="47.403"/>
	
		<rect x="59.705" y="0.759" transform="matrix(0.7071 -0.7071 0.7071 0.7071 5.4411 47.8542)" style="fill:#96CEB4;" width="1.554" height="33.201"/>
	
		<rect x="78.481" y="43.77" transform="matrix(0.707 -0.7072 0.7072 0.707 -26.0567 77.7592)" style="fill:#FFCC5C;" width="4.671" height="53.113"/>
	
		<rect x="51.937" y="41.802" transform="matrix(0.7071 -0.7071 0.7071 0.7071 -31.057 56.4599)" style="fill:#FFCC5C;" width="1.375" height="47.835"/>
	<polygon style="fill:#FFCC5C;" points="5.137,53.133 36.759,51.914 21.557,36.712 	"/>
	
		<rect x="59.953" y="15.75" transform="matrix(0.7071 -0.7071 0.7071 0.7071 -16.5057 57.7907)" style="fill:#24C2CB;" width="3.106" height="66.139"/>
	
		<rect x="82.216" y="17.165" transform="matrix(0.7073 -0.7069 0.7069 0.7073 -8.8576 72.5009)" style="fill:#EAE7D6;" width="1.828" height="59.566"/>
	<polygon style="fill:#DA2536;" points="52.847,42.097 71.828,40.061 63.355,31.588 	"/>
	
		<rect x="68.384" y="73.83" transform="matrix(0.7071 -0.7071 0.7071 0.7071 -44.6278 76.7859)" style="fill:#062331;" width="3.976" height="36.864"/>
	
		<rect x="54.496" y="13.079" transform="matrix(0.7071 -0.7071 0.7071 0.7071 -13.8441 51.3698)" style="fill:#FF6F69;" width="1.17" height="58.632"/>
	<polygon style="fill:#EF525B;" points="88.478,29.508 92.768,50.744 80.005,37.981 	"/>
	
		<rect x="43.288" y="37.671" transform="matrix(0.7071 -0.7071 0.7071 0.7071 -33.1202 50.9064)" style="fill:#96CEB4;" width="3.206" height="55.527"/>
	<polygon style="fill:#24C2CB;" points="83.072,68.072 108.345,76.399 91.545,59.599 	"/>
	
		<rect x="63.923" y="29.104" transform="matrix(0.7073 -0.7069 0.7069 0.7073 -27.2293 65.5419)" style="fill:#FFCC5C;" width="3.206" height="73.091"/>
	
		<rect x="66.775" y="10.86" transform="matrix(0.7071 -0.7071 0.7071 0.7071 -11.2568 60.3716)" style="fill:#96CEB4;" width="0.943" height="65.827"/>
	
		<rect x="78.013" y="53.604" transform="matrix(0.7072 -0.7071 0.7071 0.7072 -32.5969 78.5126)" style="fill:#AAD862;" width="0.943" height="50.009"/>
	<polygon style="fill:#24C2CB;" points="76.806,98.696 76.722,113.497 69.363,106.139 	"/>
	
		<rect x="26.732" y="40.325" transform="matrix(0.7071 -0.7071 0.7071 0.7071 -33.266 37.2063)" style="fill:#EAE7D6;" width="3.091" height="36.864"/>
	<g>
		
			<rect x="42.438" y="34.401" transform="matrix(0.7071 -0.7071 0.7071 0.7071 -39.2994 51.531)" style="fill:#FFFFFF;" width="0.239" height="77.612"/>
	</g>
	<g>
		
			<rect x="35.956" y="39.568" transform="matrix(0.7071 -0.7071 0.7071 0.7071 -34.3817 44.1049)" style="fill:#24C2CB;" width="0.184" height="47.974"/>
	</g>
	<g>
		
			<rect x="79.24" y="11.847" transform="matrix(0.7073 -0.7069 0.7069 0.7073 -11.9934 70.6661)" style="fill:#FFFFFF;" width="0.21" height="75.94"/>
	</g>
	<g>
		
			<rect x="52.803" y="49.449" transform="matrix(0.7074 -0.7068 0.7068 0.7074 -36.4294 58.8749)" style="fill:#DA2536;" width="0.18" height="47.974"/>
	</g>
	<g>
		
			<rect x="69.866" y="3.019" transform="matrix(0.7071 -0.7071 0.7071 0.7071 -15.5444 64.3865)" style="fill:#FF6F69;" width="0.167" height="95.875"/>
	</g>
	<g>
		
			<rect x="82.58" y="2.303" transform="matrix(0.7071 -0.7071 0.7071 0.7071 -6.6066 71.2657)" style="fill:#082E41;" width="0.283" height="82.61"/>
	</g>
	<g>
		
			<rect x="81.657" y="29.431" transform="matrix(0.7074 -0.7068 0.7068 0.7074 -14.8323 73.819)" style="fill:#FFFFFF;" width="0.172" height="50.787"/>
	</g>
	<g>
		
			<rect x="43.368" y="34.284" transform="matrix(0.7094 -0.7048 0.7048 0.7094 -43.9231 53.9526)" style="fill:#AAD862;" width="0.195" height="91.914"/>
	</g>
	<g>
		
			<rect x="64.288" y="22.912" transform="matrix(0.707 -0.7073 0.7073 0.707 -23.7256 63.2369)" style="fill:#24C2CB;" width="0.319" height="74.674"/>
	</g>
	<g>
		<path style="fill:#FFFFFF;" d="M35.476,74.884c0.593-0.593,1.08-1.252,1.462-1.954c-1.139,1.139-2.277,2.277-3.415,3.416
			C34.223,75.964,34.882,75.478,35.476,74.884z"/>
		<path style="fill:#FFFFFF;" d="M31.488,77.132c2.079-2.078,4.157-4.157,6.236-6.235c0.096-0.392,0.163-0.788,0.203-1.188
			c-2.542,2.542-5.084,5.084-7.626,7.626C30.7,77.295,31.097,77.228,31.488,77.132z"/>
		<path style="fill:#FFFFFF;" d="M28.131,77.271c0.296,0.047,0.593,0.078,0.892,0.093c2.978-2.978,5.956-5.955,8.934-8.933
			c-0.015-0.299-0.046-0.597-0.093-0.893c-3.004,3.005-6.009,6.009-9.013,9.014C28.61,76.792,28.371,77.032,28.131,77.271z"/>
		<path style="fill:#FFFFFF;" d="M26.372,76.798c0.243,0.095,0.488,0.177,0.737,0.248c3.302-3.302,6.605-6.604,9.907-9.906
			c0.208-0.208,0.415-0.415,0.622-0.622c-0.071-0.249-0.154-0.495-0.248-0.737c-3.219,3.219-6.437,6.438-9.656,9.656
			C27.28,75.89,26.826,76.344,26.372,76.798z"/>
		<path style="fill:#FFFFFF;" d="M24.891,76.047c0.204,0.13,0.412,0.251,0.624,0.361c3.462-3.462,6.923-6.923,10.385-10.385
			c0.367-0.367,0.734-0.734,1.101-1.101c-0.111-0.212-0.231-0.42-0.361-0.624c-3.34,3.341-6.681,6.681-10.022,10.021
			C26.042,74.896,25.466,75.471,24.891,76.047z"/>
		<path style="fill:#FFFFFF;" d="M34.783,64.907c0.445-0.445,0.89-0.891,1.336-1.336c-0.144-0.181-0.296-0.356-0.458-0.527
			c-3.387,3.387-6.773,6.773-10.16,10.16c-0.615,0.615-1.23,1.229-1.845,1.845c-0.007,0.008-0.012,0.016-0.019,0.022
			c0.17,0.16,0.346,0.312,0.526,0.455C27.703,71.986,31.243,68.447,34.783,64.907z"/>
		<path style="fill:#FFFFFF;" d="M33.667,63.791c0.453-0.453,0.905-0.906,1.358-1.358c-0.178-0.154-0.36-0.3-0.548-0.438
			c-3.364,3.364-6.728,6.729-10.092,10.093c-0.599,0.599-1.198,1.198-1.798,1.798c0.137,0.187,0.283,0.369,0.437,0.547
			c0.001-0.001,0.003-0.002,0.004-0.003C26.575,70.883,30.121,67.337,33.667,63.791z"/>
		<path style="fill:#FFFFFF;" d="M33.722,61.503c-0.212-0.123-0.427-0.236-0.646-0.339c-3.269,3.27-6.538,6.538-9.807,9.808
			c-0.504,0.504-1.008,1.008-1.513,1.513c0.103,0.219,0.216,0.435,0.338,0.646c3.486-3.485,6.971-6.971,10.457-10.456
			C32.941,62.284,33.331,61.894,33.722,61.503z"/>
		<path style="fill:#FFFFFF;" d="M32.185,60.807c-0.252-0.085-0.508-0.158-0.766-0.219c-3.089,3.089-6.178,6.178-9.267,9.268
			c-0.324,0.324-0.648,0.648-0.973,0.973c0.061,0.258,0.134,0.514,0.219,0.766c3.346-3.345,6.691-6.691,10.036-10.036
			C31.685,61.308,31.935,61.058,32.185,60.807z"/>
		<path style="fill:#FFFFFF;" d="M30.353,60.407c-0.312-0.032-0.625-0.048-0.938-0.046c-2.792,2.793-5.585,5.586-8.378,8.379
			c-0.028,0.027-0.056,0.056-0.084,0.084c-0.001,0.314,0.014,0.626,0.047,0.939c3.107-3.106,6.213-6.214,9.32-9.32
			C30.33,60.43,30.341,60.418,30.353,60.407z"/>
		<path style="fill:#FFFFFF;" d="M26.736,60.806c-1.779,1.78-3.559,3.559-5.339,5.339c-0.145,0.431-0.255,0.87-0.329,1.314
			c2.328-2.327,4.655-4.655,6.982-6.982C27.606,60.551,27.167,60.661,26.736,60.806z"/>
	</g>
</g>
</svg>
