<?xml version="1.0" encoding="utf-8"?>
<!-- Generator: Adobe Illustrator 26.0.2, SVG Export Plug-In . SVG Version: 6.00 Build 0)  -->
<svg version="1.1" id="Layer_1" xmlns="http://www.w3.org/2000/svg" xmlns:xlink="http://www.w3.org/1999/xlink" x="0px" y="0px"
	 viewBox="0 0 200 200" style="enable-background:new 0 0 200 200;" xml:space="preserve">
<style type="text/css">
	.st0{fill:#11A3BD;}
</style>
<g>
	<path class="st0" d="M168.63,86.43c-2.32,0-4.2,1.88-4.2,4.2v81.7c-10.57-3.2-21.75-4.28-32.69-3.13
		c-12.93,1.36-25.54,5.85-36.49,12.98c0,0,0,0,0,0c-1.47,0.96-3.37,0.96-4.84,0c0,0,0,0,0,0c-20.58-13.4-46.16-16.94-69.52-9.85
		V79.47h6.26v80.06c0,0.03,0,0.06,0,0.09c0,0.07,0.01,0.15,0.01,0.22c0.01,0.07,0.01,0.15,0.02,0.22c0,0.03,0,0.06,0.01,0.09
		c0,0.03,0.01,0.07,0.02,0.1c0.01,0.08,0.03,0.16,0.05,0.24c0.01,0.06,0.03,0.12,0.04,0.17c0.02,0.07,0.04,0.15,0.07,0.22
		c0.02,0.06,0.04,0.12,0.07,0.18c0.03,0.06,0.05,0.13,0.08,0.19c0.03,0.07,0.06,0.13,0.09,0.2c0.03,0.05,0.06,0.11,0.09,0.16
		c0.04,0.07,0.08,0.14,0.12,0.2c0.03,0.04,0.06,0.09,0.09,0.13c0.05,0.07,0.1,0.13,0.15,0.2c0.03,0.04,0.06,0.08,0.1,0.12
		c0.06,0.06,0.11,0.13,0.17,0.19c0.03,0.04,0.07,0.07,0.11,0.11c0.06,0.06,0.12,0.11,0.19,0.17c0.04,0.03,0.08,0.07,0.12,0.1
		c0.06,0.05,0.13,0.1,0.2,0.15c0.04,0.03,0.09,0.06,0.13,0.09c0.07,0.04,0.14,0.09,0.21,0.13c0.05,0.03,0.09,0.05,0.14,0.08
		c0.07,0.04,0.15,0.07,0.22,0.11c0.05,0.02,0.09,0.04,0.14,0.06c0.08,0.03,0.16,0.06,0.24,0.09c0.05,0.02,0.09,0.03,0.14,0.04
		c0.09,0.03,0.17,0.05,0.26,0.07c0.04,0.01,0.09,0.02,0.13,0.03c0.09,0.02,0.19,0.03,0.28,0.04c0.05,0.01,0.09,0.01,0.14,0.01
		c0.09,0.01,0.19,0.01,0.28,0.01c0.03,0,0.06,0,0.08,0c0.03,0,0.05,0,0.08,0c0.08,0,0.16-0.01,0.24-0.01
		c0.07-0.01,0.14-0.01,0.22-0.02c0.03,0,0.06,0,0.09-0.01c20.33-3.03,41.09,0.97,58.47,11.24c0.69,0.45,1.49,0.69,2.31,0.69
		c0.6,0,1.21-0.13,1.79-0.4c0.01,0,0.02-0.01,0.03-0.01c0.05-0.02,0.1-0.05,0.15-0.08c0.02-0.01,0.03-0.02,0.05-0.03
		c0.02-0.01,0.04-0.02,0.06-0.04c0.02-0.01,0.04-0.02,0.06-0.03c17.42-10.35,38.25-14.38,58.65-11.34c0.03,0,0.06,0,0.09,0.01
		c0.07,0.01,0.14,0.02,0.22,0.02c0.08,0.01,0.15,0.01,0.23,0.01c0.03,0,0.06,0,0.08,0c0.03,0,0.06,0,0.1,0
		c0.09,0,0.17-0.01,0.25-0.01c0.06,0,0.11-0.01,0.17-0.02c0.08-0.01,0.16-0.02,0.25-0.04c0.06-0.01,0.11-0.02,0.17-0.04
		c0.08-0.02,0.15-0.04,0.22-0.06c0.06-0.02,0.12-0.04,0.18-0.06c0.07-0.02,0.13-0.05,0.2-0.07c0.06-0.02,0.12-0.05,0.18-0.08
		c0.06-0.03,0.12-0.06,0.18-0.09c0.06-0.03,0.12-0.06,0.18-0.1c0.06-0.03,0.12-0.07,0.18-0.11c0.05-0.03,0.11-0.07,0.16-0.11
		c0.06-0.04,0.12-0.08,0.17-0.13c0.05-0.04,0.1-0.08,0.14-0.12c0.06-0.05,0.11-0.1,0.17-0.15c0.04-0.04,0.08-0.08,0.12-0.12
		c0.05-0.06,0.11-0.11,0.16-0.17c0.04-0.04,0.07-0.09,0.11-0.13c0.05-0.06,0.1-0.12,0.14-0.19c0.03-0.05,0.07-0.09,0.1-0.14
		c0.04-0.06,0.08-0.13,0.12-0.19c0.03-0.05,0.06-0.11,0.09-0.16c0.03-0.06,0.06-0.13,0.09-0.19c0.03-0.06,0.06-0.13,0.08-0.19
		c0.02-0.06,0.05-0.12,0.07-0.18c0.03-0.07,0.05-0.15,0.07-0.22c0.02-0.06,0.03-0.11,0.04-0.17c0.02-0.08,0.03-0.16,0.05-0.24
		c0.01-0.03,0.01-0.06,0.02-0.1c0-0.03,0-0.06,0.01-0.09c0.01-0.07,0.02-0.15,0.02-0.22c0.01-0.07,0.01-0.15,0.01-0.22
		c0-0.03,0-0.06,0-0.09v-41.34c0-2.32-1.88-4.2-4.2-4.2c-2.32,0-4.2,1.88-4.2,4.2v36.6c-9.5-0.95-19.02-0.53-28.34,1.26
		c-8.62,1.65-16.88,4.45-24.67,8.31l0-80.81C106.28,77.11,116.97,73,128,71.63c2.3-0.29,3.93-2.38,3.65-4.68
		c-0.29-2.3-2.38-3.93-4.68-3.65c-12.14,1.51-23.91,5.97-34.22,12.95C74.46,63.9,51.89,59.83,30.34,65.09
		c-0.03,0.01-0.06,0.02-0.1,0.03c-0.08,0.02-0.17,0.05-0.25,0.08c-0.05,0.02-0.11,0.04-0.16,0.06c-0.07,0.03-0.15,0.06-0.22,0.09
		c-0.06,0.03-0.12,0.06-0.18,0.08c-0.06,0.03-0.12,0.06-0.18,0.1c-0.06,0.04-0.13,0.07-0.19,0.11c-0.05,0.03-0.1,0.07-0.15,0.1
		c-0.06,0.04-0.13,0.09-0.19,0.14c-0.04,0.04-0.09,0.07-0.13,0.11c-0.06,0.05-0.12,0.1-0.17,0.16c-0.04,0.04-0.08,0.08-0.13,0.13
		c-0.05,0.05-0.1,0.11-0.15,0.16c-0.04,0.05-0.08,0.1-0.12,0.15c-0.04,0.05-0.08,0.1-0.12,0.16c-0.04,0.06-0.08,0.12-0.12,0.18
		c-0.03,0.05-0.06,0.1-0.09,0.15c-0.04,0.07-0.07,0.13-0.11,0.2c-0.03,0.05-0.05,0.1-0.08,0.16c-0.03,0.07-0.06,0.14-0.09,0.21
		c-0.02,0.06-0.04,0.11-0.06,0.17c-0.02,0.07-0.05,0.14-0.07,0.21c-0.02,0.07-0.04,0.13-0.05,0.2c-0.01,0.06-0.03,0.13-0.04,0.19
		c-0.01,0.08-0.03,0.16-0.04,0.24c-0.01,0.06-0.01,0.11-0.02,0.17c-0.01,0.09-0.01,0.17-0.01,0.26c0,0.03-0.01,0.07-0.01,0.1v1.91
		H16.68c-2.32,0-4.2,1.88-4.2,4.2V178.2c0,0.03,0,0.06,0,0.1c0,0.09,0.01,0.18,0.01,0.27c0.01,0.06,0.01,0.12,0.02,0.18
		c0.01,0.07,0.02,0.15,0.03,0.22c0.01,0.07,0.03,0.15,0.05,0.22c0.01,0.06,0.03,0.12,0.04,0.17c0.02,0.09,0.05,0.17,0.08,0.25
		c0.01,0.03,0.02,0.06,0.03,0.09c0.01,0.02,0.01,0.03,0.02,0.05c0.03,0.08,0.07,0.16,0.11,0.24c0.02,0.05,0.05,0.1,0.07,0.14
		c0.04,0.07,0.07,0.13,0.11,0.2c0.03,0.06,0.07,0.12,0.1,0.17c0.03,0.05,0.07,0.1,0.1,0.14c0.05,0.07,0.09,0.13,0.14,0.19
		c0.03,0.04,0.06,0.07,0.09,0.11c0.06,0.07,0.12,0.13,0.18,0.2c0.03,0.03,0.07,0.06,0.1,0.09c0.06,0.06,0.13,0.12,0.2,0.18
		c0.04,0.03,0.09,0.07,0.13,0.1c0.06,0.05,0.12,0.1,0.19,0.14c0.06,0.04,0.12,0.07,0.18,0.11c0.05,0.03,0.11,0.07,0.16,0.1
		c0.07,0.04,0.14,0.07,0.22,0.11c0.05,0.02,0.09,0.05,0.14,0.07c0.08,0.03,0.15,0.06,0.23,0.09c0.05,0.02,0.1,0.04,0.15,0.05
		c0.07,0.02,0.14,0.04,0.22,0.06c0.06,0.02,0.12,0.03,0.18,0.05c0.06,0.01,0.12,0.02,0.19,0.03c0.08,0.01,0.16,0.03,0.23,0.04
		c0.05,0.01,0.1,0.01,0.15,0.01c0.09,0.01,0.18,0.01,0.27,0.01c0.02,0,0.03,0,0.05,0c0.03,0,0.06,0,0.1,0
		c0.09,0,0.18-0.01,0.27-0.01c0.06-0.01,0.12-0.01,0.17-0.02c0.08-0.01,0.15-0.02,0.23-0.03c0.07-0.01,0.15-0.03,0.22-0.05
		c0.06-0.01,0.12-0.03,0.17-0.04c0.09-0.02,0.17-0.05,0.25-0.08c0.03-0.01,0.06-0.02,0.09-0.03c22.33-8.59,47.62-5.94,67.63,7.1
		c0,0,0,0,0,0c2.13,1.39,4.57,2.08,7,2.08c2.44,0,4.88-0.69,7-2.08c0,0,0,0,0,0c19.93-12.98,45.08-15.64,67.29-7.1
		c0.03,0.01,0.06,0.02,0.1,0.03c0.08,0.03,0.17,0.06,0.25,0.08c0.06,0.02,0.12,0.03,0.17,0.04c0.07,0.02,0.15,0.03,0.22,0.05
		c0.07,0.01,0.15,0.02,0.22,0.03c0.06,0.01,0.12,0.02,0.18,0.02c0.09,0.01,0.17,0.01,0.26,0.01c0.03,0,0.07,0.01,0.1,0.01
		c0.02,0,0.03,0,0.05,0c0.09,0,0.17-0.01,0.26-0.01c0.06,0,0.11-0.01,0.17-0.01c0.07-0.01,0.15-0.02,0.22-0.03
		c0.07-0.01,0.13-0.02,0.2-0.04c0.06-0.01,0.11-0.03,0.17-0.04c0.08-0.02,0.16-0.04,0.24-0.07c0.04-0.01,0.09-0.03,0.13-0.05
		c0.08-0.03,0.17-0.06,0.25-0.1c0.04-0.02,0.08-0.04,0.12-0.06c0.08-0.04,0.16-0.08,0.24-0.12c0.05-0.03,0.09-0.06,0.14-0.09
		c0.07-0.04,0.13-0.08,0.19-0.12c0.06-0.04,0.11-0.08,0.17-0.13c0.05-0.04,0.1-0.07,0.14-0.11c0.06-0.05,0.12-0.11,0.19-0.17
		c0.04-0.03,0.07-0.07,0.11-0.1c0.06-0.06,0.12-0.12,0.17-0.19c0.03-0.04,0.07-0.07,0.1-0.11c0.05-0.06,0.09-0.12,0.14-0.19
		c0.04-0.05,0.07-0.1,0.11-0.15c0.04-0.05,0.07-0.11,0.1-0.17c0.04-0.07,0.08-0.13,0.11-0.2c0.02-0.05,0.05-0.09,0.07-0.14
		c0.04-0.08,0.08-0.16,0.11-0.25c0.01-0.02,0.01-0.03,0.02-0.05c0.01-0.03,0.02-0.06,0.03-0.09c0.03-0.08,0.06-0.17,0.08-0.26
		c0.02-0.06,0.03-0.11,0.04-0.17c0.02-0.07,0.03-0.15,0.05-0.22c0.01-0.07,0.02-0.15,0.03-0.22c0.01-0.06,0.02-0.12,0.02-0.18
		c0.01-0.09,0.01-0.18,0.01-0.27c0-0.03,0-0.07,0-0.1V90.63C172.82,88.31,170.94,86.43,168.63,86.43z M88.54,83.55l0,80.81
		c-7.79-3.87-16.05-6.66-24.67-8.31c-9.33-1.79-18.84-2.21-28.34-1.26V72.55C53.99,68.94,73.03,72.88,88.54,83.55z"/>
	<path class="st0" d="M181.71,15.26c-7.93-4.18-17.67-1.38-22.18,6.37c-0.01,0.03-0.03,0.05-0.04,0.08
		c-0.01,0.03-0.03,0.05-0.04,0.07l-45.28,85.87c0,0.01-0.01,0.02-0.01,0.03c-0.03,0.05-0.05,0.11-0.08,0.16
		c-0.03,0.07-0.07,0.14-0.1,0.21c0,0,0,0.01-0.01,0.01c-0.01,0.04-0.02,0.07-0.04,0.11c-0.03,0.09-0.07,0.18-0.09,0.27
		c0,0,0,0.01,0,0.01c-0.02,0.07-0.03,0.13-0.05,0.2c-0.02,0.07-0.03,0.13-0.05,0.2c-0.02,0.1-0.03,0.19-0.04,0.29
		c0,0.03-0.01,0.07-0.01,0.1c0,0.01,0,0.01,0,0.02c-0.01,0.08-0.01,0.17-0.01,0.25c0,0.05-0.01,0.1-0.01,0.15c0,0,0,0,0,0
		c0,0,0,0.01,0,0.01v0c0,0.01,0,0.02,0,0.03l0.17,26.48c0.01,1.55,0.87,2.97,2.25,3.69c0.61,0.32,1.28,0.48,1.95,0.48
		c0.83,0,1.65-0.24,2.36-0.73l21.8-14.82c0.11-0.08,0.22-0.16,0.32-0.24c0.01-0.01,0.02-0.01,0.02-0.02
		c0.01-0.01,0.02-0.02,0.03-0.03c0.09-0.08,0.18-0.16,0.26-0.24c0,0,0,0,0.01-0.01c0,0,0,0,0,0c0.01-0.01,0.01-0.01,0.02-0.02
		c0.08-0.09,0.16-0.17,0.24-0.27c0.01-0.01,0.01-0.01,0.02-0.02c0.02-0.03,0.04-0.05,0.06-0.08c0.05-0.06,0.09-0.13,0.14-0.19
		c0.01-0.02,0.03-0.04,0.04-0.06c0.01-0.02,0.03-0.04,0.04-0.06c0.04-0.07,0.09-0.14,0.13-0.22c0.01-0.02,0.03-0.05,0.04-0.07
		l0.01-0.01c0-0.01,0.01-0.02,0.01-0.03l45.35-85.94c0.01-0.02,0.02-0.04,0.02-0.05c0.02-0.04,0.04-0.07,0.06-0.11
		C192.85,29.05,189.64,19.43,181.71,15.26z M177.8,22.68c3.92,2.06,5.51,6.81,3.65,10.82l-1.76,3.34l-14.59-7.76l1.73-3.27
		C169.07,21.99,173.88,20.62,177.8,22.68z M137.37,117.02c-5.64-0.58-10.85-3.36-14.56-7.77l38.36-72.75l14.59,7.76L137.37,117.02z
		 M122.13,119.94c2.14,1.52,4.46,2.75,6.9,3.67l-6.85,4.66L122.13,119.94z"/>
</g>
</svg>
